
<!-- Generator: Adobe Illustrator 20.0.0, SVG Export Plug-In . SVG Version: 6.00 Build 0)  -->
<svg version="1.1" id="logo" xmlns="http://www.w3.org/2000/svg" xmlns:xlink="http://www.w3.org/1999/xlink" x="0px" y="0px"
	 viewBox="0 0 276.4 75" style="enable-background:new 0 0 276.4 75;" xml:space="preserve">


<defs>
<style type="text/css">
	.st0{fill:none;stroke:#FFFFFF;stroke-width:1;stroke-miterlimit:10;}

	.st0{
		stroke-dasharray: 900;
		stroke-dashoffset: 0;
		-webkit-animation: dash 6s linear forwards;
		-o-animation: dash 6s linear forwards;
		-moz-animation: dash 6s linear forwards;
		animation: dash 6s linear forwards;
	}

	#logo:hover .st0  {
		fill: #fff;
		stroke: #808080;
	}

	@-webkit-keyframes dash{
		from{
			stroke-dashoffset: 1000;
		}
		to{
			stroke-dashoffset: 0;
		}
	}
</style>
</defs>
<g>
	<path class="st0" d="M18.8,52.3c-1.8,7.6-3,13.6-13.2,13.6c-1.2,0-4-0.3-5.7-0.7l1.8-7.4c1,0.3,1.9,0.3,3.2,0.3
		c3.1,0,3.9-1.1,4.8-5.2l9.8-44.5h8.9L18.8,52.3z"/>
	<path class="st0" d="M59.8,24.1l-5.8,26.6c-2.1,9.7-5.3,15.4-16.2,15.4c-10.5,0-13.5-6.6-11.4-16.4l6-27.8
		c2-9.7,7.3-14.2,15.6-14.2C57.5,7.7,62.1,13.7,59.8,24.1z M41.5,21.9l-6.4,29.4c-0.9,4.1-0.5,7.5,3.6,7.5c3.4,0,5-2.8,5.9-7.2
		l6.5-29.2c0.9-4.2,0.1-7.1-3.9-7.1C44.2,15.1,42.4,17.4,41.5,21.9z"/>
	<path class="st0" d="M70.5,8.5h8.9l-5,22.7h9.4l5-22.7h9L85.2,65.2h-9L82,39h-9.4l-5.7,26.2h-8.9L70.5,8.5z"/>
	<path class="st0" d="M93.2,65.2l12.6-56.7h10.5l0.9,28.7c0.1,4.8,0.2,8.3,0.1,10.7h0.1c1.3-7.4,2.7-15.4,4.8-24.6l3.3-14.8h8.5
		l-12.6,56.7H111l-0.8-28c-0.2-4-0.4-10.5-0.3-12.2h-0.1c-1.1,7-2.6,14.5-4.8,24.7l-3.4,15.5H93.2z"/>
	<path class="st0" d="M153,8.5h11.4c9.4,0,13.7,4.8,11.7,14.4l-0.6,3c-1.6,7.6-4.9,9.8-8.2,10.7c2.3,1.6,4.4,4.2,2.4,13
		c-1.1,4.8-2.7,12.2-2.9,15.6h-8.8c0.1-3.5,1.8-10.6,3.2-17.3c1.3-5.9,0.6-7.9-3.9-7.9H155l-5.6,25.2h-8.9L153,8.5z M156.6,32.8h1.9
		c5.1,0,6.9-1.4,8-7.4l0.5-3c0.9-4.2,0.3-6.7-4.2-6.7h-2.5L156.6,32.8z"/>
	<path class="st0" d="M200.7,39H188l-4,18.3h15.3l-2.9,7.9h-23.1l12.6-56.7h22.3l-1.9,7.9h-13.3l-3.3,14.8h12.6L200.7,39z"/>
	<path class="st0" d="M214.6,8.5h10.6c13.2,0,15.1,7.6,12.5,19.3L233,49.2c-2.3,10.1-5.2,16-17.5,16h-13.4L214.6,8.5z M212.5,58.1
		h2.8c5.4,0,7.2-2.7,8.7-9l5.3-24c1.3-5.9,1-9.3-4.6-9.3H222L212.5,58.1z"/>
	<path class="st0" d="M248.4,49.9L243,65.2h-9.4c0.8-2.1,20.5-54.3,21.5-56.7h13.3l-3.3,56.7h-9l1.1-15.3H248.4z M257.9,42
		c0.7-8.7,1.4-19.3,1.9-25.6h-0.4c-1.3,5-5.2,16.8-8.1,25.6H257.9z"/>
</g>
</svg>
