<!-- Generator: Adobe Illustrator 20.0.0, SVG Export Plug-In . SVG Version: 6.00 Build 0)  -->
<svg version="1.1" id="logo" xmlns="http://www.w3.org/2000/svg" xmlns:xlink="http://www.w3.org/1999/xlink" x="0px" y="0px"
	 viewBox="0 0 123 156" style="enable-background:new 0 0 123 156;" xml:space="preserve">

<defs>
<style type="text/css">
	.st0{fill:none;stroke:#FFFFFF;stroke-width:8;stroke-miterlimit:10;}

	.st0{
		stroke-dasharray: 900;
		stroke-dashoffset: 0;
		-webkit-animation: dash 4s linear forwards;
		-o-animation: dash 4s linear forwards;
		-moz-animation: dash 4s linear forwards;
		animation: dash 4s linear forwards;
	}

	#logo:hover .st0  {
		fill: #fff;
		stroke: #808080;
	}

	@-webkit-keyframes dash{
		from{
			stroke-dashoffset: 1000;
		}
		to{
			stroke-dashoffset: 0;
		}
	}
</style>
</defs>
<g id="Layer_1">
	<g>
		<path class="st0" d="M39.5,119.7c0,15.6-1.5,30-22.3,30c-3,0-6.8-0.2-8.8-0.6v-12c1.3,0.2,3.6,0.4,6.6,0.4
			c7.7,0,10.7-2.6,10.7-15.6V5h13.7V119.7z"/>
		<path class="st0" d="M60.3,5h23.8c21.4,0,31.5,9.4,31.5,32.5v6.8c0,18.8-6.2,27.2-14.6,30.2c9.2,3.2,13.3,10.3,13.3,29.3
			c0,12.2-0.2,34.9,1.5,44.1h-13.3c-1.9-9-1.5-33.2-1.5-43c0-18.8-2.8-24.4-17.1-24.4H74V148H60.3V5z M74,68.8h10.3
			c14.1,0,17.5-8.6,17.5-23.8v-6.6c0-13.7-3.9-21.6-18.6-21.6H74V68.8z"/>
	</g>
</g>
</svg>
